<svg xmlns="http://www.w3.org/2000/svg" width="32" height="32" fill="none"><g clip-path="url(#a)"><path fill="#ECF2FF" d="M6 5a5 5 0 1 1 10 0 5 5 0 0 1 10 0v.012c0 .14 0 .54-.076.988H30a2 2 0 0 1 2 2v2a2 2 0 0 1-2 2H2a2 2 0 0 1-2-2V8a2 2 0 0 1 2-2h4.076A5.935 5.935 0 0 1 6 5.012V5Zm2.136 1H14V5a3 3 0 1 0-6 0c0 .17.004.548.09.86.012.048.027.094.046.14ZM18 6h5.864c.018-.046.034-.092.046-.14.086-.312.09-.69.09-.86a3 3 0 0 0-6 0v1Zm12 8v15a3 3 0 0 1-3 3h-9V14h12ZM5 32a3 3 0 0 1-3-3V14h12v18H5Z"/></g><defs><clipPath id="a"><path fill="#fff" d="M0 0h32v32H0z"/></clipPath></defs></svg>